#define temp3_width 10
#define temp3_height 14
#define temp3_x_hot 0
#define temp3_y_hot 0
static const unsigned char temp3_bits[] = {
  0x3C,0xFC,0x66,0xFC,0xC2,0xFD,0x4A,0xFC,0xD2,0xFC,0x4A,0xFC,
  0xD2,0xFD,0x4A,0xFC,0x91,0xFC,0x89,0xFC,0xFF,0xFF,0xFF,0xFF,
  0xFF,0xFF,0xFF,0xFF};